<?xml version="1.0" encoding="utf-8"?>
<!-- Generator: Adobe Illustrator 24.1.0, SVG Export Plug-In . SVG Version: 6.00 Build 0)  -->
<svg version="1.1" id="圖層_1" xmlns="http://www.w3.org/2000/svg" xmlns:xlink="http://www.w3.org/1999/xlink" x="0px" y="0px"
	 viewBox="0 0 280 280" style="enable-background:new 0 0 280 280;" xml:space="preserve">
<style type="text/css">
	.st0{fill:#FFFFFF;stroke:#FFFFFF;stroke-width:2;stroke-miterlimit:10;}
	.st1{fill:#FFFFFF;}
</style>
<g id="tsunami">
	<path class="st0" d="M17.28,172.22c1.23,0.63,2.55,1.02,3.89,1.02C19.83,173.25,18.51,172.86,17.28,172.22l0.79,1.06
		c0.34,0,0.64-0.03,1-0.03c6.51-0.18,12.96,1.33,18.72,4.39c7.04,3.65,14.88,5.48,22.81,5.3c7.93,0.17,15.78-1.65,22.82-5.3
		c5.75-3.06,12.2-4.57,18.72-4.39c6.52-0.18,12.97,1.33,18.72,4.39c7.04,3.65,14.89,5.47,22.83,5.3c7.93,0.17,15.77-1.65,22.81-5.3
		c11.8-5.85,25.65-5.85,37.45,0c14.4,7.07,31.26,7.07,45.66,0c5.76-3.06,12.21-4.57,18.73-4.39v-9.69
		c-7.93-0.17-15.78,1.65-22.83,5.3c-11.8,5.85-25.66,5.85-37.46,0c-14.39-7.07-31.25-7.07-45.65,0c-5.75,3.06-12.2,4.57-18.72,4.39
		c-6.52,0.18-12.97-1.33-18.73-4.39c-7.04-3.65-14.89-5.47-22.82-5.3c-7.92-0.17-15.77,1.65-22.8,5.3
		c-5.76,3.06-12.21,4.58-18.73,4.39c-6.51,0.18-12.96-1.33-18.71-4.39c-7.04-3.65-14.88-5.48-22.81-5.3
		c-2.52-0.01-5.04,0.16-7.54,0.49c0.01,0.2,0.04,0.39,0.07,0.58L17.28,172.22z"/>
	<path class="st0" d="M261.24,199.83v20.86H19.17v-76.21h22.41h82.75c12.07-0.03,15.17,3.38,25.38,9.82l18.23,13.54
		c0.75-0.46,1.51-0.92,2.25-1.4c1.88-1.18,3.67-2.46,5.43-3.78l-20.09-15.41c-11.84-7.72-16.98-11.81-31.16-11.73h-6.59V90.69
		l10.76,8.07c0.78,0.58,1.72,0.9,2.69,0.9c2,0,3.84-1.34,4.37-3.44c0.45-1.77-0.35-3.63-1.81-4.73
		c-7.78-5.84-43.55-32.66-53.67-40.25c-1.59-1.19-3.77-1.19-5.36,0L21.12,91.47c-1.74,1.3-2.47,3.66-1.52,5.62
		c1.27,2.63,4.53,3.34,6.75,1.67l10.76-8.07v44.83H14.69c-2.48,0-4.48,2.01-4.48,4.48v28.2v56.98c0,2.48,2.01,4.48,4.48,4.48h251.03
		c2.48,0,4.48-2.01,4.48-4.48v-25.35L261.24,199.83L261.24,199.83z M86.41,135.52H68.48v-26.9h17.93V135.52z M46.07,83.97
		l31.38-23.53l31.38,23.53v51.55H95.38v-31.38c0-2.48-2.01-4.48-4.48-4.48H64c-2.48,0-4.48,2.01-4.48,4.48v31.38H46.07V83.97z"/>
	<g>
		<g>
			<g>
				<g>
					<g>
						<path class="st1" d="M214.25,67.57c-1.5-1.5-1.5-3.97,0-5.47l7.28-7.25c1.5-1.5,3.93-1.5,5.43,0s1.5,3.93,0,5.43l-7.25,7.28
							c-0.77,0.73-1.73,1.12-2.74,1.12S215.02,68.3,214.25,67.57z"/>
						<path class="st1" d="M168.46,60.28c-1.5-1.5-1.5-3.93,0-5.43s3.93-1.5,5.43,0l7.28,7.25c1.5,1.5,1.5,3.97,0,5.47
							c-0.77,0.73-1.77,1.12-2.74,1.12c-1,0-1.97-0.39-2.74-1.12L168.46,60.28z"/>
						<path class="st1" d="M170.46,87.96h-10.29c-2.12,0-3.85-1.73-3.85-3.85c0-2.12,1.73-3.85,3.85-3.85h10.29
							c2.12,0,3.85,1.73,3.85,3.85C174.32,86.23,172.58,87.96,170.46,87.96z"/>
						<path class="st1" d="M193.86,56.85V46.56c0-2.12,1.73-3.85,3.85-3.85c2.12,0,3.85,1.73,3.85,3.85v10.29
							c0,2.12-1.73,3.85-3.85,3.85C195.59,60.71,193.86,58.97,193.86,56.85z"/>
						<path class="st1" d="M201.57,111.36v10.29c0,2.12-1.73,3.85-3.85,3.85c-2.12,0-3.85-1.73-3.85-3.85v-10.29
							c0-2.12,1.73-3.85,3.85-3.85C199.83,107.5,201.57,109.24,201.57,111.36z"/>
						<path class="st1" d="M213.63,84.11c0,8.79-7.13,15.92-15.92,15.92s-15.92-7.13-15.92-15.92s7.13-15.92,15.92-15.92
							S213.63,75.32,213.63,84.11z"/>
						<path class="st1" d="M239.11,84.11c0,2.12-1.73,3.85-3.85,3.85h-10.29c-2.12,0-3.85-1.73-3.85-3.85
							c0-2.12,1.73-3.85,3.85-3.85h10.29C237.38,80.25,239.11,81.99,239.11,84.11z"/>
						<path class="st1" d="M226.97,107.93c1.5,1.5,1.5,3.93,0,5.43c-0.73,0.77-1.73,1.16-2.7,1.16c-1,0-2-0.39-2.74-1.16l-7.28-7.25
							c-1.5-1.5-1.5-3.97,0-5.47s3.97-1.5,5.47,0L226.97,107.93z"/>
						<path class="st1" d="M181.18,100.64c1.5,1.5,1.5,3.97,0,5.47l-7.28,7.25c-0.73,0.77-1.73,1.16-2.74,1.16
							c-0.96,0-1.97-0.39-2.7-1.16c-1.5-1.5-1.5-3.93,0-5.43l7.25-7.28C177.21,99.14,179.67,99.14,181.18,100.64z"/>
					</g>
				</g>
			</g>
		</g>
	</g>
</g>
</svg>
