<?xml version="1.0" encoding="utf-8"?>
<!-- Generator: Adobe Illustrator 24.1.0, SVG Export Plug-In . SVG Version: 6.00 Build 0)  -->
<svg version="1.1" xmlns="http://www.w3.org/2000/svg" xmlns:xlink="http://www.w3.org/1999/xlink" x="0px" y="0px"
	 viewBox="0 0 280 280" style="enable-background:new 0 0 280 280;" xml:space="preserve">
<style type="text/css">
	.st0{display:none;}
	.st1{display:inline;fill:#919191;}
	.st2{fill:#FFFFFF;}
	.st3{fill-rule:evenodd;clip-rule:evenodd;fill:#FFFFFF;}
</style>
<g id="圖層_2" class="st0">
	<rect class="st1" width="280" height="280"/>
</g>
<g id="typhoon" class="st0">
</g>
<g id="gale">
	<g transform="translate(0,-1020.3622)">
		<path class="st2" d="M135,1081.86c-16.51,0-30,13.49-30,29.99c-0.04,2.76,2.17,5.03,4.93,5.07s5.03-2.17,5.07-4.93
			c0-0.05,0-0.09,0-0.14c0-11.1,8.9-19.99,20-19.99c11.1,0,20,8.89,20,19.99c0,11.1-8.9,19.99-20,19.99c-15,0-60,0-60,0
			c-2.76-0.02-5.02,2.19-5.05,4.95s2.19,5.02,4.96,5.04c0.03,0,0.06,0,0.09,0c0,0,45,0,60,0c16.51,0,30-13.49,30-29.99
			C165,1095.35,151.51,1081.86,135,1081.86z"/>
		<path class="st3" d="M230.08,1181.83c-2.76-0.02-5.02,2.19-5.05,4.95c-0.02,2.76,2.19,5.02,4.96,5.04c0.03,0,0.06,0,0.09,0
			c5.49,0,9.82,4.36,9.88,9.9c-0.17,4.18-1.52,6.25-3.36,7.73c-1.86,1.5-4.51,2.29-6.74,2.38c-2.76-0.02-5.01,2.21-5.03,4.97
			c-0.02,2.76,2.21,5.01,4.97,5.03c0.16,0,0.33-0.01,0.49-0.02c4.03-0.17,8.63-1.38,12.58-4.57c3.95-3.18,6.89-8.52,7.13-15.25
			c0-0.06,0-0.12,0-0.18C250,1190.85,241.04,1181.83,230.08,1181.83L230.08,1181.83z"/>
		<path class="st3" d="M205,1131.85c-2.76-0.02-5.02,2.19-5.05,4.95s2.19,5.02,4.96,5.04c0.03,0,0.06,0,0.09,0h10
			c5.58,0,10,4.42,10,10c0,0.03,0,0.07,0,0.1c0.03,3.48-1.29,5.67-3.26,7.36c-1.98,1.69-4.76,2.58-6.72,2.58c-0.01,0-0.01,0-0.02,0
			H50c-10.99,0-20,9.01-20,19.99c0,0.07,0,0.13,0,0.2c0.24,6.64,3.28,11.94,7.23,15.19c3.95,3.25,8.58,4.68,12.85,4.61H180
			c5.58,0,9.99,4.41,10,9.98c-0.04,3.86-1.44,5.93-3.44,7.54c-1.98,1.59-4.8,2.42-6.64,2.48H170c-2.76-0.02-5.02,2.19-5.05,4.95
			c-0.02,2.76,2.19,5.02,4.96,5.04c0.03,0,0.06,0,0.09,0h10c0.05,0,0.09,0,0.14,0c4.1-0.11,8.7-1.48,12.7-4.69
			c3.99-3.21,7.11-8.57,7.17-15.27c0-10.98-9.01-19.99-20-19.99H50c-0.03,0-0.05,0-0.08,0c-1.71,0-4.39-0.71-6.35-2.32
			c-1.94-1.6-3.36-3.85-3.54-7.77c0.06-5.53,4.42-9.9,9.96-9.9h165c4.59,0,9.34-1.66,13.24-5c3.9-3.34,6.8-8.65,6.76-15.01
			c-0.01-10.97-9.02-19.98-20-19.98L205,1131.85z"/>
		<path class="st3" d="M120.14,1221.82c-2.76-0.02-5.02,2.19-5.05,4.95c-0.02,2.76,2.19,5.02,4.96,5.04c0.03,0,0.06,0,0.09,0H140
			c2.76,0.02,5.02-2.19,5.05-4.95s-2.19-5.02-4.96-5.04c-0.03,0-0.06,0-0.09,0H120.14z"/>
		<path class="st3" d="M190.14,1106.85c-2.76-0.02-5.02,2.19-5.05,4.95c-0.02,2.76,2.19,5.02,4.96,5.04c0.03,0,0.06,0,0.09,0H210
			c2.76,0.02,5.02-2.19,5.05-4.95c0.02-2.76-2.19-5.02-4.96-5.04c-0.03,0-0.06,0-0.09,0H190.14z"/>
	</g>
</g>
<g id="rain" class="st0">
</g>
<g id="temp" class="st0">
</g>
<g id="fog" class="st0">
</g>
<g id="wave" class="st0">
</g>
</svg>
