<?xml version="1.0" encoding="utf-8"?>
<!-- Generator: Adobe Illustrator 24.1.0, SVG Export Plug-In . SVG Version: 6.00 Build 0)  -->
<svg version="1.1" xmlns="http://www.w3.org/2000/svg" xmlns:xlink="http://www.w3.org/1999/xlink" x="0px" y="0px"
	 viewBox="0 0 120 121" style="enable-background:new 0 0 120 121;" xml:space="preserve">
<style type="text/css">
	.st0{display:none;}
	.st1{display:inline;}
	.st2{fill:#FFFFFF;}
	.st3{display:inline;fill:#FFFFFF;stroke:#FFFFFF;stroke-miterlimit:10;}
</style>
<g id="圖層_1" class="st0">
	<g transform="translate(0,-952.36218)" class="st1">
		<g>
			<path class="st2" d="M49.9,1056.03c-9.11,9.11-23.95,9.11-33.06,0c-9.11-9.11-9.11-23.95,0-33.06l18.37-18.37
				c9.11-9.11,23.95-9.11,33.06,0c2.15,0.01,3.89,3.35,3.88,5.5c-0.01,2.15-1.76,3.89-3.91,3.88c-2.14-0.01-3.88-1.74-5.48-3.88
				c-6.15-6.15-15.89-6.15-22.04,0l-18.37,18.37c-6.15,6.15-6.15,15.89,0,22.04c6.15,6.15,15.89,6.15,22.04,0l17.45-17.45
				c1.5-1.54,3.97-1.58,5.51-0.08c1.54,1.5,1.58,3.97,0.08,5.51c-0.02,0.03-0.05,0.05-0.08,0.08L49.9,1056.03L49.9,1056.03z
				 M84.8,1021.13c-9.11,9.11-23.95,9.11-33.06,0c-1.52-1.52-1.52-3.99,0-5.51c1.52-1.52,3.99-1.52,5.51,0c0,0,0,0,0,0
				c6.15,6.15,15.89,6.15,22.04,0l18.37-18.37c6.15-6.15,6.15-15.89,0-22.04c-6.15-6.15-15.89-6.15-22.04,0l-17.45,17.45
				c-1.5,1.54-3.97,1.58-5.51,0.08c-1.54-1.5-1.58-3.97-0.08-5.51c0.03-0.03,0.05-0.05,0.08-0.08L70.1,969.7
				c9.11-9.11,23.95-9.11,33.06,0c9.11,9.11,9.11,23.95,0,33.06L84.8,1021.13L84.8,1021.13z"/>
		</g>
	</g>
</g>
<g id="圖層_2">
	<g>
		<path class="st2" d="M106.43,38.27h-25v-13.9c0-1.92-1.6-3.47-3.57-3.47H42.14c-1.97,0-3.57,1.56-3.57,3.47v13.9h-25
			c-1.97,0-3.57,1.56-3.57,3.47v54.89c0,1.92,1.6,3.47,3.57,3.47h92.86c1.97,0,3.57-1.56,3.57-3.47V41.74
			C110,39.82,108.4,38.27,106.43,38.27z M45.71,27.84h28.57v10.42H45.71V27.84z M17.14,45.21h85.71v5.42
			c0,8.52-7.1,15.42-15.86,15.42h0H63.57c0-1.92-1.6-3.47-3.57-3.47c-1.97,0-3.57,1.56-3.57,3.47H33c-8.76,0-15.86-6.91-15.86-15.42
			l0,0V45.21z M17.14,93.16V66.79C21.4,70.77,27.09,73,33,73.01h23.43c0,1.92,1.6,3.47,3.57,3.47c1.97,0,3.57-1.56,3.57-3.47H87
			c5.91,0,11.6-2.23,15.86-6.22v26.37H17.14z"/>
	</g>
</g>
<g id="圖層_3" class="st0">
	<path class="st3" d="M91.17,18.11c-0.46-0.15-0.92,0-1.38,0.31c-0.46,0.15-0.61,0.61-0.61,1.08v13.36h-6.14V19.5
		c0-0.92-0.61-1.54-1.54-1.54c-0.15,0-0.31,0-0.46,0c-5.07,1.38-9.21,5.22-10.9,10.29c-1.08-0.31-2.15-0.61-3.22-0.92l-0.77-8.45
		c-0.15-0.77-0.77-1.38-1.54-1.38h-9.21c-0.77,0-1.38,0.61-1.54,1.38l-0.77,8.6c-4.15,0.77-7.99,2.46-11.52,4.76l-6.6-5.53
		c-0.61-0.46-1.54-0.46-2,0.15l-6.45,6.45c-0.61,0.61-0.61,1.54-0.15,2.15l5.53,6.6c-2.3,3.53-3.84,7.37-4.76,11.36l-8.75,0.92
		C17.61,54.51,17,55.12,17,55.89v9.21c0,0.77,0.61,1.38,1.38,1.54l8.6,0.77c0.77,4.15,2.46,7.99,4.76,11.52l-5.53,6.6
		c-0.46,0.61-0.46,1.54,0.15,2l6.45,6.45c0.61,0.61,1.38,0.61,2,0.15l6.76-5.38c3.53,2.3,7.37,3.84,11.36,4.76l0.92,8.6
		c0.15,0.77,0.77,1.38,1.54,1.38h9.21c0.77,0,1.38-0.61,1.54-1.38l0.77-8.6c3.53-0.77,6.91-2,9.98-3.84v4.61
		c0,5.07,4.15,9.21,9.21,9.21c0.61,0,1.38,0,2-0.15c4.3-1.07,7.37-4.91,7.22-9.37V67.26l6.3-0.61c0.77-0.15,1.38-0.77,1.38-1.54
		v-9.21c0-0.77-0.61-1.38-1.38-1.54l-6.3-0.61v-4.61c4.76-2.92,7.68-8.29,7.68-13.98v-1.54C103,26.41,98.09,19.96,91.17,18.11z
		 M76.89,73.71c-7.37,9.37-20.89,11.06-30.25,3.69c-9.37-7.37-10.9-20.89-3.53-30.1c5.99-7.68,16.59-10.44,25.49-6.45
		c0.77,0.31,1.38,0.61,2.15,1.08c1.38,2.92,3.53,5.38,6.14,6.91V73.71z M65.38,90.6c-0.61,0.15-1.23,0.61-1.23,1.38l-0.92,8.45
		h-6.45l-0.77-8.29c0-0.61-0.61-1.23-1.23-1.38c-4.45-0.77-8.6-2.46-12.29-5.07c-0.61-0.46-1.38-0.46-1.84,0l-6.45,5.38l-4.61-4.61
		L34.81,80c0.46-0.46,0.46-1.23,0.15-1.84c-2.61-3.69-4.3-7.83-5.07-12.29c-0.15-0.61-0.61-1.23-1.38-1.23l-8.45-0.92v-6.45
		l8.29-0.77c0.77,0,1.23-0.61,1.38-1.23c0.77-4.45,2.46-8.6,5.07-12.29c0.46-0.61,0.31-1.38-0.15-1.84l-5.38-6.45l4.61-4.61
		l6.45,5.22c0.46,0.46,1.23,0.46,1.84,0.15c3.69-2.61,7.83-4.3,12.29-5.07c0.61-0.15,1.23-0.61,1.23-1.38l1.08-8.45h6.45l0.77,8.29
		c0,0.61,0.61,1.23,1.23,1.38c1.38,0.31,2.76,0.61,4.15,1.07c-0.15,0.77-0.15,1.54-0.15,2.3v1.54c0,0.92,0.15,1.84,0.31,2.61
		c-2.92-1.23-6.14-1.84-9.52-1.84c-13.51,0-24.57,11.06-24.57,24.57S46.49,85.07,60,85.07c6.3,0,12.29-2.46,16.89-6.76v7.68
		C73.36,88.3,69.52,89.99,65.38,90.6L65.38,90.6z M99.93,57.27v6.45l-4.61,0.46v-7.37L99.93,57.27z M92.25,93.98
		c0.15,2.92-2,5.68-4.76,6.3c-1.84,0.46-3.69,0-5.22-1.23c-1.54-1.07-2.3-2.92-2.3-4.76V50.36c1.69,0.61,3.53,0.92,5.38,0.92h2.15
		c1.23,0,2.46-0.15,3.53-0.46h0.15l0.92-0.31v43.46H92.25z M99.93,35.16c0,5.99-3.84,11.21-9.52,12.75h-0.15
		c-0.92,0.15-1.69,0.31-2.61,0.31h-2.15c-1.69,0-3.38-0.31-5.07-0.92c-3.22-1.38-5.68-3.84-7.06-7.06
		c-0.61-1.54-0.92-3.22-1.08-4.91v-1.54c0-5.07,3.07-9.83,7.68-11.83v12.44c0,0.92,0.61,1.54,1.54,1.54h9.21
		c0.92,0,1.54-0.61,1.54-1.54V21.8c4.61,2.15,7.68,6.76,7.68,11.82V35.16z"/>
</g>
<g id="圖層_4" class="st0">
	<g class="st1">
		<path class="st2" d="M108.2,74.1H92.8l-0.4-49.8H23.8v59.1c0,7.35,5.95,13.3,13.3,13.3h58.3c7.15-0.27,12.81-6.15,12.8-13.3V74.1z
			 M37.1,92.7c-5.14,0-9.3-4.16-9.3-9.3l0,0V28.2h60.6L88.8,74H46.5v9.3c0.06,5.14-4.06,9.34-9.2,9.4
			C37.23,92.7,37.17,92.7,37.1,92.7z M104.2,83.4c0,5.14-4.16,9.3-9.3,9.3c0,0,0,0,0,0H46.6c2.43-2.48,3.8-5.82,3.8-9.3v-5.3h53.8
			V83.4z"/>
		<rect x="37.8" y="37.4" class="st2" width="21.5" height="4"/>
		<rect x="37.8" y="49.4" class="st2" width="41.5" height="4"/>
		<rect x="37.8" y="61.4" class="st2" width="41.5" height="4"/>
	</g>
</g>
</svg>
