<?xml version="1.0" encoding="utf-8"?>
<!-- Generator: Adobe Illustrator 24.1.0, SVG Export Plug-In . SVG Version: 6.00 Build 0)  -->
<svg version="1.1" id="圖層_1" xmlns="http://www.w3.org/2000/svg" xmlns:xlink="http://www.w3.org/1999/xlink" x="0px" y="0px"
	 viewBox="0 0 280 280" style="enable-background:new 0 0 280 280;" xml:space="preserve">
<style type="text/css">
	.st0{fill:#FFFFFF;stroke:#FFFFFF;stroke-width:3;stroke-miterlimit:10;}
</style>
<g id="typhoon">
	<g>
		<path class="st0" d="M140,170c16.57,0,30-13.43,30-30s-13.43-30-30-30s-30,13.43-30,30S123.43,170,140,170z M140,116
			c13.25,0,24,10.75,24,24s-10.75,24-24,24s-24-10.75-24-24S126.75,116,140,116z"/>
		<path class="st0" d="M140,77c-12.89,0-25.46,3.98-36,11.4C122,68.69,150.32,56,182,56v-6c-57.9,0-105,40.38-105,90l0,0
			c0,12.89,3.98,25.46,11.4,36C68.69,158,56,129.68,56,98h-6c0,57.9,40.38,105,90,105l0,0c12.89,0,25.46-3.98,36-11.4
			c-18,19.71-46.32,32.4-78,32.4v6c57.9,0,105-40.38,105-90l0,0c0-12.89-3.98-25.46-11.4-36c19.71,18,32.4,46.32,32.4,78h6
			C230,124.1,189.62,77,140,77z M197,140c0,31.48-25.52,57-57,57s-57-25.52-57-57l0,0c0-31.48,25.52-57,57-57S197,108.52,197,140z"
			/>
	</g>
</g>
</svg>
