<?xml version="1.0" encoding="utf-8"?>
<!-- Generator: Adobe Illustrator 24.1.0, SVG Export Plug-In . SVG Version: 6.00 Build 0)  -->
<svg version="1.1" id="圖層_1" xmlns="http://www.w3.org/2000/svg" xmlns:xlink="http://www.w3.org/1999/xlink" x="0px" y="0px"
	 viewBox="0 0 280 280" style="enable-background:new 0 0 280 280;" xml:space="preserve">
<style type="text/css">
	.st0{fill:#FFFFFF;}
</style>
<g id="temp-hot">
	<g>
		<rect x="136.92" y="80.83" class="st0" width="10.6" height="21"/>
		<path class="st0" d="M148.07,165.84l-0.55-0.45v-10.75h-10.6v16.21c13.62,9.57,15.48,18.84,15.48,26.66
			c0,16.76-13.63,30.39-30.38,30.39c-16.76,0-30.39-13.63-30.39-30.39c0-13.73,7.35-20.97,15.47-26.64V64.59
			c0-8.3,7.5-12.65,14.91-12.65c7.41,0,14.91,4.34,14.91,12.65v0.34h10.6v-0.34c0-15.86-13.27-23.09-25.59-23.09
			c-12.25,0-25.44,7.22-25.44,23.09v100.83l-0.55,0.45c-9.34,7.68-14.92,19.51-14.92,31.64c0,22.6,18.39,40.99,40.99,40.99
			c22.59,0,40.98-18.39,40.98-40.99C162.99,185.37,157.41,173.54,148.07,165.84z"/>
		<rect x="136.92" y="117.73" class="st0" width="10.6" height="21"/>
		<path class="st0" d="M116.72,80.82v97.53l-1.02,0.34c-8.12,2.71-13.57,10.3-13.57,18.88c0,10.97,8.93,19.9,19.9,19.9
			s19.9-8.92,19.9-19.9c0-8.58-5.45-16.16-13.57-18.88l-1.02-0.34V80.82H116.72z"/>
	</g>
	<g>
		<g>
			<g>
				<g>
					<g>
						<path class="st0" d="M216.92,73.8c-1.5-1.5-1.5-3.97,0-5.47l7.28-7.25c1.5-1.5,3.93-1.5,5.43,0s1.5,3.93,0,5.43l-7.25,7.28
							c-0.77,0.73-1.73,1.12-2.74,1.12S217.69,74.53,216.92,73.8z"/>
						<path class="st0" d="M171.13,66.51c-1.5-1.5-1.5-3.93,0-5.43s3.93-1.5,5.43,0l7.28,7.25c1.5,1.5,1.5,3.97,0,5.47
							c-0.77,0.73-1.77,1.12-2.74,1.12c-1,0-1.97-0.39-2.74-1.12L171.13,66.51z"/>
						<path class="st0" d="M173.13,94.19h-10.29c-2.12,0-3.85-1.73-3.85-3.85c0-2.12,1.73-3.85,3.85-3.85h10.29
							c2.12,0,3.85,1.73,3.85,3.85C176.99,92.45,175.25,94.19,173.13,94.19z"/>
						<path class="st0" d="M196.53,63.08V52.79c0-2.12,1.73-3.85,3.85-3.85c2.12,0,3.85,1.73,3.85,3.85v10.29
							c0,2.12-1.73,3.85-3.85,3.85C198.26,66.94,196.53,65.2,196.53,63.08z"/>
						<path class="st0" d="M204.24,117.58v10.29c0,2.12-1.73,3.85-3.85,3.85c-2.12,0-3.85-1.73-3.85-3.85v-10.29
							c0-2.12,1.73-3.85,3.85-3.85C202.5,113.73,204.24,115.46,204.24,117.58z"/>
						<path class="st0" d="M216.3,90.33c0,8.79-7.13,15.92-15.92,15.92s-15.92-7.13-15.92-15.92s7.13-15.92,15.92-15.92
							S216.3,81.55,216.3,90.33z"/>
						<path class="st0" d="M241.78,90.33c0,2.12-1.73,3.85-3.85,3.85h-10.29c-2.12,0-3.85-1.73-3.85-3.85
							c0-2.12,1.73-3.85,3.85-3.85h10.29C240.04,86.48,241.78,88.21,241.78,90.33z"/>
						<path class="st0" d="M229.64,114.15c1.5,1.5,1.5,3.93,0,5.43c-0.73,0.77-1.73,1.16-2.7,1.16c-1,0-2-0.39-2.74-1.16l-7.28-7.25
							c-1.5-1.5-1.5-3.97,0-5.47s3.97-1.5,5.47,0L229.64,114.15z"/>
						<path class="st0" d="M183.85,106.87c1.5,1.5,1.5,3.97,0,5.47l-7.28,7.25c-0.73,0.77-1.73,1.16-2.74,1.16
							c-0.96,0-1.97-0.39-2.7-1.16c-1.5-1.5-1.5-3.93,0-5.43l7.25-7.28C179.88,105.37,182.34,105.37,183.85,106.87z"/>
					</g>
				</g>
			</g>
		</g>
	</g>
</g>
</svg>
