<?xml version="1.0" encoding="utf-8"?>
<!-- Generator: Adobe Illustrator 24.1.0, SVG Export Plug-In . SVG Version: 6.00 Build 0)  -->
<svg version="1.1" id="圖層_1" xmlns="http://www.w3.org/2000/svg" xmlns:xlink="http://www.w3.org/1999/xlink" x="0px" y="0px"
	 viewBox="0 0 280 280" style="enable-background:new 0 0 280 280;" xml:space="preserve">
<style type="text/css">
	.st0{fill:#FFFFFF;}
</style>
<g id="temp-cold">
	<g>
		<path class="st0" d="M148.07,165.84l-0.55-0.45v-10.75h-10.6v16.21c13.62,9.57,15.48,18.84,15.48,26.66
			c0,16.76-13.63,30.39-30.38,30.39c-16.76,0-30.39-13.63-30.39-30.39c0-13.73,7.35-20.97,15.47-26.64V64.59
			c0-8.3,7.5-12.65,14.91-12.65c7.41,0,14.91,4.34,14.91,12.65v0.34h10.6v-0.34c0-15.86-13.27-23.09-25.59-23.09
			c-12.25,0-25.44,7.22-25.44,23.09v100.83l-0.55,0.45c-9.34,7.68-14.92,19.51-14.92,31.64c0,22.6,18.39,40.99,40.99,40.99
			c22.59,0,40.98-18.39,40.98-40.99C162.99,185.37,157.41,173.54,148.07,165.84z"/>
		<rect x="136.92" y="80.83" class="st0" width="10.6" height="21"/>
		<rect x="136.92" y="117.73" class="st0" width="10.6" height="21"/>
		<path class="st0" d="M116.72,155.15v23.19l-1.02,0.34c-8.12,2.71-13.57,10.3-13.57,18.88c0,10.97,8.93,19.9,19.9,19.9
			s19.9-8.92,19.9-19.9c0-8.58-5.45-16.16-13.57-18.88l-1.02-0.34v-23.19H116.72z"/>
	</g>
	<g>
		<g>
			<g>
				<g>
					<path class="st0" d="M235.47,92.15c0-1.77-1.4-3.24-3.17-3.34l0.13-0.13c1.3-1.3,1.3-3.41,0-4.71c-1.3-1.3-3.41-1.3-4.71,0
						l-4.84,4.84h-7.18c-0.1,0-0.2,0-0.3,0.03c-0.4-1.94-1.17-3.74-2.24-5.34c0.07-0.07,0.17-0.13,0.23-0.2l5.08-5.08h6.88
						c1.84,0,3.34-1.5,3.34-3.34s-1.5-3.34-3.34-3.34h-0.23c1.2-1.3,1.17-3.31-0.1-4.58c-1.24-1.24-3.27-1.3-4.58-0.13v-0.2
						c0-1.84-1.5-3.34-3.34-3.34c-1.87,0-3.34,1.5-3.34,3.34v6.85l-5.08,5.08c-0.07,0.07-0.17,0.17-0.2,0.27
						c-1.6-1.07-3.41-1.84-5.38-2.24c0.03-0.1,0.03-0.23,0.03-0.33V69.1l4.84-4.84c1.34-1.3,1.34-3.44,0-4.74
						c-1.3-1.3-3.41-1.3-4.71,0l-0.13,0.13c-0.1-1.77-1.54-3.17-3.34-3.17c-1.77,0-3.24,1.4-3.34,3.17l-0.13-0.13
						c-1.3-1.3-3.41-1.3-4.71,0s-1.3,3.44,0,4.74l4.84,4.84v7.15c0,0.1,0,0.23,0.03,0.33c-1.94,0.4-3.74,1.17-5.34,2.2
						c-0.07-0.1-0.13-0.17-0.2-0.23l-5.08-5.08v-6.85c0-1.84-1.5-3.34-3.34-3.34c-1.87,0-3.34,1.5-3.34,3.34v0.23
						c-1.34-1.2-3.34-1.17-4.61,0.1s-1.3,3.27-0.1,4.58h-0.2c-1.87,0-3.34,1.5-3.34,3.34s1.47,3.34,3.34,3.34h6.85l5.08,5.08
						c0.07,0.07,0.13,0.13,0.23,0.2c-1.07,1.6-1.84,3.41-2.24,5.34c-0.1-0.03-0.2-0.03-0.3-0.03h-7.18l-4.84-4.84
						c-1.3-1.3-3.41-1.3-4.71,0s-1.3,3.41,0,4.71l0.17,0.17c-1.8,0.07-3.17,1.54-3.17,3.31s1.37,3.24,3.17,3.31l-0.17,0.17
						c-1.3,1.34-1.3,3.44,0,4.74c0.63,0.63,1.5,0.97,2.37,0.97c0.84,0,1.7-0.33,2.34-0.97l4.88-4.88h7.15c0.1,0,0.2,0,0.3-0.03
						c0.4,1.97,1.17,3.77,2.24,5.38c-0.1,0.07-0.17,0.13-0.23,0.2l-5.08,5.08h-6.85c-1.87,0-3.34,1.5-3.34,3.34s1.47,3.34,3.34,3.34
						h0.2c-1.2,1.3-1.17,3.31,0.1,4.58c0.67,0.67,1.5,1,2.37,1c0.77,0,1.6-0.3,2.24-0.9v0.23c0,1.84,1.47,3.34,3.34,3.34
						c1.84,0,3.34-1.5,3.34-3.34v-6.85l5.08-5.08c0.07-0.07,0.13-0.13,0.2-0.2c1.6,1.04,3.41,1.8,5.34,2.17
						c-0.03,0.1-0.03,0.23-0.03,0.33v7.15l-4.84,4.84c-1.3,1.3-1.3,3.44,0,4.74s3.41,1.3,4.71,0l0.17-0.17
						c0.07,1.77,1.54,3.17,3.31,3.17c1.8,0,3.24-1.4,3.31-3.17l0.17,0.17c0.67,0.63,1.5,0.97,2.37,0.97c0.84,0,1.7-0.33,2.34-0.97
						c1.34-1.3,1.34-3.44,0-4.74l-4.84-4.84v-7.15c0-0.1,0-0.23-0.03-0.33c1.97-0.37,3.77-1.14,5.38-2.2
						c0.03,0.07,0.13,0.17,0.2,0.23l5.08,5.08v6.85c0,1.84,1.47,3.34,3.34,3.34c1.84,0,3.34-1.5,3.34-3.34v-0.2
						c0.63,0.6,1.4,0.87,2.2,0.87c0.87,0,1.7-0.33,2.37-1c1.27-1.27,1.3-3.27,0.1-4.58h0.23c1.84,0,3.34-1.5,3.34-3.34
						s-1.5-3.34-3.34-3.34h-6.91l-5.04-5.04c-0.07-0.07-0.17-0.17-0.23-0.2c1.07-1.6,1.84-3.44,2.24-5.41
						c0.1,0.03,0.2,0.03,0.3,0.03h7.15l4.88,4.88c0.63,0.63,1.5,0.97,2.37,0.97c0.84,0,1.7-0.33,2.34-0.97c1.3-1.3,1.3-3.41,0-4.74
						l-0.13-0.13C234.06,95.39,235.47,93.92,235.47,92.15z M199.79,101.44c-5.11,0-9.29-4.14-9.29-9.29c0-5.11,4.18-9.25,9.29-9.25
						s9.29,4.14,9.29,9.25C209.08,97.3,204.9,101.44,199.79,101.44z"/>
				</g>
			</g>
		</g>
	</g>
</g>
</svg>
