<?xml version="1.0" encoding="utf-8"?>
<!-- Generator: Adobe Illustrator 24.1.0, SVG Export Plug-In . SVG Version: 6.00 Build 0)  -->
<svg version="1.1" id="圖層_1" xmlns="http://www.w3.org/2000/svg" xmlns:xlink="http://www.w3.org/1999/xlink" x="0px" y="0px"
	 viewBox="0 0 200 60" style="enable-background:new 0 0 200 60;" xml:space="preserve">
<style type="text/css">
	.st0{fill:#FFFFFF;}
</style>
<g transform="translate(0,-952.36218)">
	<path class="st0" d="M174.1,1008c0.6,0,1.1-0.2,1.5-0.6l23.7-22.9c0.1,0,0.1-0.1,0.2-0.1c0.7-0.8,0.6-2-0.2-2.8l-23.7-22.9
		c-0.8-0.8-2.2-0.9-3.1-0.1c-0.9,0.8-0.9,2.1-0.1,2.9c0,0,0,0,0.1,0.1l20.1,19.3H2.2c-1.2,0-2.2,0.9-2.2,2c0,1.1,0.9,2.1,2.1,2.1
		c0,0,0,0,0.1,0h190.4l-20.1,19.3c-0.9,0.8-0.9,2.1-0.1,2.9C172.9,1007.7,173.5,1008,174.1,1008z"/>
</g>
</svg>
