<?xml version="1.0" encoding="utf-8"?>
<!-- Generator: Adobe Illustrator 24.1.0, SVG Export Plug-In . SVG Version: 6.00 Build 0)  -->
<svg version="1.1" id="圖層_1" xmlns="http://www.w3.org/2000/svg" xmlns:xlink="http://www.w3.org/1999/xlink" x="0px" y="0px"
	 viewBox="0 0 280 280" style="enable-background:new 0 0 280 280;" xml:space="preserve">
<style type="text/css">
	.st0{fill:#FFFFFF;stroke:#FFFFFF;stroke-width:2;stroke-miterlimit:10;}
</style>
<g id="none">
	<path class="st0" d="M49.28,183.32c2.04,0,3.83-1.79,3.83-3.83c0-18.91,18.14-34.24,40.63-34.24c2.04,0,3.83-1.79,3.83-3.83
		s-1.79-3.83-3.83-3.83c-6.39,0-12.78,1.02-18.4,3.07c1.02-19.42,19.68-34.76,42.42-34.76c23.51,0,42.68,16.1,42.68,36.29
		c0,0.26,0,0.51,0,0.77s0,0.51,0,0.77c0,2.04,1.79,3.83,3.83,3.83c18.14,0,29.39,18.14,29.39,31.18c0,2.04,1.79,3.83,3.83,3.83
		s3.83-1.79,3.83-3.83c0-5.11-1.28-10.48-3.58-15.59c10.48-9.2,16.36-21.98,16.36-36.03c0-26.32-21.47-47.79-47.79-47.79
		c-15.08,0-29.13,7.16-38.08,19.17c-3.58-0.77-7.16-1.02-10.73-1.02c-27.34,0-49.58,19.17-50.09,42.93v0.26v2.81
		c-13.29,7.41-22.23,20.44-22.23,35.27C45.44,181.78,46.98,183.32,49.28,183.32z M166.83,87.74c21.98,0,39.87,17.89,39.87,39.87
		c0,10.99-4.6,21.47-12.52,28.88c-0.77-1.28-1.53-2.3-2.56-3.32c-6.39-7.41-14.57-12.01-23.51-13.03
		c-0.77-17.63-13.54-32.71-31.18-39.1C144.34,92.59,155.33,87.74,166.83,87.74z M162.49,62.95V43.53c0-2.04,1.79-3.83,3.83-3.83
		s3.83,1.79,3.83,3.83v19.42c0,2.04-1.79,3.83-3.83,3.83S162.49,64.99,162.49,62.95z M255,128.12c0,2.04-1.79,3.83-3.83,3.83h-19.42
		c-2.04,0-3.83-1.79-3.83-3.83c0-2.04,1.79-3.83,3.83-3.83h19.42C253.21,124.28,255,126.07,255,128.12z M228.93,185.36
		c1.53,1.53,1.53,4.09,0,5.62c-0.77,0.77-1.79,1.02-2.81,1.02s-2.04-0.26-2.81-1.02l-13.8-13.8c-1.53-1.53-1.53-4.09,0-5.62
		s4.09-1.53,5.62,0L228.93,185.36z M103.71,70.87c-1.53-1.53-1.53-4.09,0-5.62s4.09-1.53,5.62,0l13.8,13.8
		c1.53,1.53,1.53,4.09,0,5.62c-0.77,0.77-1.79,1.02-2.81,1.02s-2.04-0.26-2.81-1.02L103.71,70.87z M209.77,84.67
		c-1.53-1.53-1.53-4.09,0-5.62l13.8-13.8c1.53-1.53,4.09-1.53,5.62,0s1.53,4.09,0,5.62l-13.8,13.8c-0.77,0.77-1.79,1.02-2.81,1.02
		C211.56,85.95,210.53,85.44,209.77,84.67z M40.59,197.37c0-2.04,1.79-3.83,3.83-3.83h156.91c2.04,0,3.83,1.79,3.83,3.83
		s-1.53,3.83-3.83,3.83H44.42C42.38,201.21,40.59,199.42,40.59,197.37z M185.74,220.88H28.83c-2.04,0-3.83-1.79-3.83-4.09
		c0-2.04,1.79-3.83,3.83-3.83h156.91c2.04,0,3.83,1.79,3.83,3.83C189.58,219.09,188.04,220.88,185.74,220.88z M221.01,236.47
		c0,2.04-1.79,3.83-3.83,3.83H60.01c-2.04,0-3.83-1.79-3.83-3.83s1.79-3.83,3.83-3.83h156.91
		C219.22,232.38,221.01,234.17,221.01,236.47z"/>
</g>
</svg>
