<?xml version="1.0" encoding="utf-8"?>
<!-- Generator: Adobe Illustrator 24.1.0, SVG Export Plug-In . SVG Version: 6.00 Build 0)  -->
<svg version="1.1" xmlns="http://www.w3.org/2000/svg" xmlns:xlink="http://www.w3.org/1999/xlink" x="0px" y="0px"
	 viewBox="0 0 120 121" style="enable-background:new 0 0 120 121;" xml:space="preserve">
<style type="text/css">
	.st0{display:none;}
	.st1{display:inline;}
	.st2{fill:#FFFFFF;}
	.st3{fill:#FFFFFF;stroke:#FFFFFF;stroke-miterlimit:10;}
</style>
<g id="圖層_1" class="st0">
	<g transform="translate(0,-952.36218)" class="st1">
		<g>
			<path class="st2" d="M49.9,1056.03c-9.11,9.11-23.95,9.11-33.06,0c-9.11-9.11-9.11-23.95,0-33.06l18.37-18.37
				c9.11-9.11,23.95-9.11,33.06,0c2.15,0.01,3.89,3.35,3.88,5.5c-0.01,2.15-1.76,3.89-3.91,3.88c-2.14-0.01-3.88-1.74-5.48-3.88
				c-6.15-6.15-15.89-6.15-22.04,0l-18.37,18.37c-6.15,6.15-6.15,15.89,0,22.04c6.15,6.15,15.89,6.15,22.04,0l17.45-17.45
				c1.5-1.54,3.97-1.58,5.51-0.08c1.54,1.5,1.58,3.97,0.08,5.51c-0.02,0.03-0.05,0.05-0.08,0.08L49.9,1056.03L49.9,1056.03z
				 M84.8,1021.13c-9.11,9.11-23.95,9.11-33.06,0c-1.52-1.52-1.52-3.99,0-5.51c1.52-1.52,3.99-1.52,5.51,0c0,0,0,0,0,0
				c6.15,6.15,15.89,6.15,22.04,0l18.37-18.37c6.15-6.15,6.15-15.89,0-22.04c-6.15-6.15-15.89-6.15-22.04,0l-17.45,17.45
				c-1.5,1.54-3.97,1.58-5.51,0.08c-1.54-1.5-1.58-3.97-0.08-5.51c0.03-0.03,0.05-0.05,0.08-0.08L70.1,969.7
				c9.11-9.11,23.95-9.11,33.06,0c9.11,9.11,9.11,23.95,0,33.06L84.8,1021.13L84.8,1021.13z"/>
		</g>
	</g>
</g>
<g id="圖層_2" class="st0">
	<g class="st1">
		<path class="st2" d="M106.43,38.27h-25v-13.9c0-1.92-1.6-3.47-3.57-3.47H42.14c-1.97,0-3.57,1.56-3.57,3.47v13.9h-25
			c-1.97,0-3.57,1.56-3.57,3.47v54.89c0,1.92,1.6,3.47,3.57,3.47h92.86c1.97,0,3.57-1.56,3.57-3.47V41.74
			C110,39.82,108.4,38.27,106.43,38.27z M45.71,27.84h28.57v10.42H45.71V27.84z M17.14,45.21h85.71v5.42
			c0,8.52-7.1,15.42-15.86,15.42h0H63.57c0-1.92-1.6-3.47-3.57-3.47c-1.97,0-3.57,1.56-3.57,3.47H33c-8.76,0-15.86-6.91-15.86-15.42
			l0,0V45.21z M17.14,93.16V66.79C21.4,70.77,27.09,73,33,73.01h23.43c0,1.92,1.6,3.47,3.57,3.47c1.97,0,3.57-1.56,3.57-3.47H87
			c5.91,0,11.6-2.23,15.86-6.22v26.37H17.14z"/>
	</g>
</g>
<g id="圖層_3">
	<path class="st3" d="M96.25,11.21c-0.54-0.18-1.07,0-1.61,0.36c-0.54,0.18-0.71,0.71-0.71,1.25v15.54h-7.14V12.82
		c0-1.07-0.71-1.79-1.79-1.79c-0.18,0-0.36,0-0.54,0C78.57,12.64,73.75,17.11,71.79,23c-1.25-0.36-2.5-0.71-3.75-1.07l-0.89-9.82
		c-0.18-0.89-0.89-1.61-1.79-1.61H54.64c-0.89,0-1.61,0.71-1.79,1.61l-0.89,10c-4.82,0.89-9.29,2.86-13.39,5.54l-7.68-6.43
		c-0.71-0.54-1.79-0.54-2.32,0.18l-7.5,7.5c-0.71,0.71-0.71,1.79-0.18,2.5l6.43,7.68c-2.68,4.11-4.46,8.57-5.54,13.21l-10.18,1.07
		C10.71,53.54,10,54.25,10,55.14v10.71c0,0.89,0.71,1.61,1.61,1.79l10,0.89c0.89,4.82,2.86,9.29,5.54,13.39l-6.43,7.68
		c-0.54,0.71-0.54,1.79,0.18,2.32l7.5,7.5c0.71,0.71,1.61,0.71,2.32,0.18l7.86-6.25c4.11,2.68,8.57,4.46,13.21,5.54l1.07,10
		c0.18,0.89,0.89,1.61,1.79,1.61h10.71c0.89,0,1.61-0.71,1.79-1.61l0.89-10c4.11-0.89,8.04-2.32,11.61-4.46v5.36
		c0,5.89,4.82,10.71,10.71,10.71c0.71,0,1.61,0,2.32-0.18c5-1.25,8.57-5.71,8.39-10.89V68.36l7.32-0.71
		c0.89-0.18,1.61-0.89,1.61-1.79V55.14c0-0.89-0.71-1.61-1.61-1.79l-7.32-0.71v-5.36c5.54-3.39,8.93-9.64,8.93-16.25v-1.79
		C110,20.86,104.29,13.36,96.25,11.21z M79.64,75.86c-8.57,10.89-24.29,12.86-35.18,4.29s-12.68-24.29-4.11-35
		C47.32,36.21,59.64,33,70,37.64c0.89,0.36,1.61,0.71,2.5,1.25c1.61,3.39,4.11,6.25,7.14,8.04V75.86z M66.25,95.5
		c-0.71,0.18-1.43,0.71-1.43,1.61l-1.07,9.82h-7.5l-0.89-9.64c0-0.71-0.71-1.43-1.43-1.61c-5.18-0.89-10-2.86-14.29-5.89
		c-0.71-0.54-1.61-0.54-2.14,0L30,96.04l-5.36-5.36l6.07-7.5c0.54-0.54,0.54-1.43,0.18-2.14c-3.04-4.29-5-9.11-5.89-14.29
		c-0.18-0.71-0.71-1.43-1.61-1.43l-9.82-1.07v-7.5l9.64-0.89c0.89,0,1.43-0.71,1.61-1.43c0.89-5.18,2.86-10,5.89-14.29
		c0.54-0.71,0.36-1.61-0.18-2.14l-6.25-7.5l5.36-5.36l7.5,6.07c0.54,0.54,1.43,0.54,2.14,0.18c4.29-3.04,9.11-5,14.29-5.89
		c0.71-0.18,1.43-0.71,1.43-1.61l1.25-9.82h7.5l0.89,9.64c0,0.71,0.71,1.43,1.43,1.61c1.61,0.36,3.21,0.71,4.82,1.25
		c-0.18,0.89-0.18,1.79-0.18,2.68v1.79c0,1.07,0.18,2.14,0.36,3.04c-3.39-1.43-7.14-2.14-11.07-2.14
		c-15.71,0-28.57,12.86-28.57,28.57S44.29,89.07,60,89.07c7.32,0,14.29-2.86,19.64-7.86v8.93C75.54,92.82,71.07,94.79,66.25,95.5
		L66.25,95.5z M106.43,56.75v7.5l-5.36,0.54v-8.57L106.43,56.75z M97.5,99.43c0.18,3.39-2.32,6.61-5.54,7.32
		c-2.14,0.54-4.29,0-6.07-1.43c-1.79-1.25-2.68-3.39-2.68-5.54V48.71c1.96,0.71,4.11,1.07,6.25,1.07h2.5c1.43,0,2.86-0.18,4.11-0.54
		h0.18l1.07-0.36v50.54H97.5z M106.43,31.04c0,6.96-4.46,13.04-11.07,14.82h-0.18c-1.07,0.18-1.96,0.36-3.04,0.36h-2.5
		c-1.96,0-3.93-0.36-5.89-1.07c-3.75-1.61-6.61-4.46-8.21-8.21c-0.71-1.79-1.07-3.75-1.25-5.71v-1.79c0-5.89,3.57-11.43,8.93-13.75
		v14.46c0,1.07,0.71,1.79,1.79,1.79h10.71c1.07,0,1.79-0.71,1.79-1.79V15.5c5.36,2.5,8.93,7.86,8.93,13.75V31.04z"/>
</g>
<g id="圖層_4" class="st0">
	<g class="st1">
		<path class="st2" d="M108.2,74.1H92.8l-0.4-49.8H23.8v59.1c0,7.35,5.95,13.3,13.3,13.3h58.3c7.15-0.27,12.81-6.15,12.8-13.3V74.1z
			 M37.1,92.7c-5.14,0-9.3-4.16-9.3-9.3l0,0V28.2h60.6L88.8,74H46.5v9.3c0.06,5.14-4.06,9.34-9.2,9.4
			C37.23,92.7,37.17,92.7,37.1,92.7z M104.2,83.4c0,5.14-4.16,9.3-9.3,9.3c0,0,0,0,0,0H46.6c2.43-2.48,3.8-5.82,3.8-9.3v-5.3h53.8
			V83.4z"/>
		<rect x="37.8" y="37.4" class="st2" width="21.5" height="4"/>
		<rect x="37.8" y="49.4" class="st2" width="41.5" height="4"/>
		<rect x="37.8" y="61.4" class="st2" width="41.5" height="4"/>
	</g>
</g>
</svg>
