<?xml version="1.0" encoding="utf-8"?>
<!-- Generator: Adobe Illustrator 24.1.0, SVG Export Plug-In . SVG Version: 6.00 Build 0)  -->
<svg version="1.1" id="圖層_1" xmlns="http://www.w3.org/2000/svg" xmlns:xlink="http://www.w3.org/1999/xlink" x="0px" y="0px"
	 viewBox="0 0 280 280" style="enable-background:new 0 0 280 280;" xml:space="preserve">
<style type="text/css">
	.st0{fill:#FFFFFF;}
</style>
<g id="fog">
	<g>
		<path class="st0" d="M253.75,110.55c-1.25-1.37-3.16-1.91-4.93-1.39c-4.56,1.33-9.29,2.01-14.05,2.01
			c-14.1,0-27.61-5.99-37.06-16.42c-12.98-14.32-16.55-34.35-9.33-52.29c0.69-1.71,0.34-3.67-0.9-5.04
			c-1.24-1.37-3.16-1.91-4.93-1.39c-8.69,2.54-16.51,6.93-23.27,13.05c-10.79,9.78-17.12,22.64-18.96,36.05
			c-2.66-0.5-5.39-0.79-8.19-0.79c-18.18,0-34.32,10.98-41.08,27.62c-1.19,0.22-2.36,0.52-3.51,0.87c-1.01,0.27-2.01,0.58-2.99,0.97
			c-0.4,0.16-0.75,0.37-1.07,0.62c-5.19,2.44-9.67,6.26-12.86,11.21c-16.91,2.54-29.36,16.84-29.36,34.24c0,0.8,0.07,1.59,0.13,2.38
			c-0.02,0.26-0.03,0.52,0,0.78c0.13,1.29,0.36,2.57,0.65,3.84c0.01,0.04,0.02,0.07,0.02,0.11c0.47,2.03,1.15,4.03,2.02,5.96
			c0.08,0.18,0.14,0.36,0.22,0.53h0.04c1.29,2.73,2.95,5.32,4.96,7.64c0.95,1.1,2.29,1.66,3.65,1.66c1.12,0,2.24-0.39,3.15-1.18
			c2.01-1.74,2.23-4.79,0.49-6.8c-0.37-0.43-0.73-0.87-1.07-1.33h0.06c-2.93-3.9-4.68-8.6-4.68-13.6c0-13.19,9.9-23.9,23.03-24.92
			c1.64-0.13,3.1-1.08,3.87-2.53c2.75-5.15,7.39-8.83,12.83-10.42c1.37-0.32,2.77-0.51,4.19-0.51c5.87,0,11.42,2.85,14.84,7.61
			c0.94,1.31,2.42,2.01,3.92,2.01c0.97,0,1.96-0.29,2.81-0.91c2.16-1.55,2.66-4.57,1.1-6.72c-3.93-5.47-9.7-9.29-16.13-10.84
			c5.9-11.34,17.66-18.65,30.78-18.65c9.58,0,18.26,3.9,24.55,10.19c0.19,0.32,0.4,0.64,0.66,0.92c6,6.38,9.3,14.72,9.3,23.49
			c0,9.1-3.71,17.99-10.18,24.39c-1.89,1.87-1.91,4.92-0.04,6.81c0.94,0.95,2.18,1.43,3.43,1.43c1.22,0,2.45-0.46,3.39-1.39
			c5.32-5.26,9.15-11.84,11.24-18.95c3.97-2.6,8.55-3.98,13.34-3.98c13.47,0,24.43,10.96,24.43,24.43
			c0,12.88-10.64,22.59-24.76,22.59h-13.54l0,0h-1.02c-2.66,0-4.82,2.16-4.82,4.82s2.16,4.82,4.82,4.82h2.95c0.01,0,0.02,0,0.02,0
			h11.59c19.61,0,34.39-13.85,34.39-32.22c0-4.24-0.81-8.28-2.23-12.03c7.21-2.61,13.92-6.58,19.73-11.84
			c6.75-6.12,11.89-13.48,15.27-21.88C255.34,113.87,254.99,111.92,253.75,110.55z M232.91,130.32
			c-5.26,4.77-11.41,8.26-18.02,10.41c-6.23-8.17-16.03-13.48-27.08-13.48c-3.91,0-7.73,0.66-11.34,1.93c0-0.16,0-0.33,0-0.5
			c0-18.22-11.05-33.89-26.78-40.71c1.24-11.79,6.6-23.19,16.06-31.76c3.27-2.96,6.84-5.44,10.67-7.41
			c-3.86,18.48,1.25,38.19,14.14,52.41c11.28,12.45,27.39,19.59,44.21,19.59c2.19,0,4.38-0.12,6.55-0.36
			C238.98,124.06,236.17,127.37,232.91,130.32z"/>
		<path class="st0" d="M161.03,222.47c0-2.66-2.16-4.82-4.82-4.82H44.17c-2.66,0-4.82,2.16-4.82,4.82s2.16,4.82,4.82,4.82h112.04
			C158.87,227.29,161.03,225.13,161.03,222.47z"/>
		<path class="st0" d="M214.04,200.78H89.95c-2.66,0-4.82,2.16-4.82,4.82s2.16,4.82,4.82,4.82h124.09c2.66,0,4.82-2.16,4.82-4.82
			S216.7,200.78,214.04,200.78z"/>
		<path class="st0" d="M207.94,234.52H86.33c-2.66,0-4.82,2.16-4.82,4.82s2.16,4.82,4.82,4.82h121.61c2.66,0,4.82-2.16,4.82-4.82
			C212.76,236.68,210.61,234.52,207.94,234.52z"/>
		<path class="st0" d="M79.1,193.56h4.41h32.3h3.04c2.66,0,4.82-2.16,4.82-4.82s-2.16-4.82-4.82-4.82h-3.04h-32.3H79.1h-2.45H51.9
			H29.82c-2.66,0-4.82,2.16-4.82,4.82s2.16,4.82,4.82,4.82h46.83H79.1z"/>
	</g>
</g>
</svg>
