<?xml version="1.0" encoding="utf-8"?>
<!-- Generator: Adobe Illustrator 24.1.0, SVG Export Plug-In . SVG Version: 6.00 Build 0)  -->
<svg version="1.1" id="圖層_1" xmlns="http://www.w3.org/2000/svg" xmlns:xlink="http://www.w3.org/1999/xlink" x="0px" y="0px"
	 viewBox="0 0 280 280" style="enable-background:new 0 0 280 280;" xml:space="preserve">
<style type="text/css">
	.st0{fill:#FFFFFF;}
</style>
<g id="rain">
	<path class="st0" d="M248.5,148.41c0-27.48-22.36-49.83-49.83-49.83c-1.04,0-2.06,0.07-3.13,0.14l-1.62,0.11l-0.38-1.08
		c-9.02-25.82-33.49-43.17-60.87-43.17c-16.04,0-31.43,5.95-43.33,16.76c-11.82,10.73-19.22,25.33-20.84,41.1l-0.12,1.15l-1.14,0.18
		c-20.38,3.27-35.75,21.31-35.75,41.97c0,23.43,19.07,42.5,42.5,42.5h5.83v-11.67H74c-17,0-30.83-13.83-30.83-30.83
		S57,124.91,74,124.91c3.22,0,5.83-2.62,5.83-5.83c0-29.13,23.7-52.83,52.83-52.83c21.9,0,41.18,13.22,49.13,33.67l0.55,1.41
		l-1.41,0.54c-6.18,2.35-11.7,5.82-16.43,10.3l8.29,8.22c7.01-6.55,16.13-10.13,25.87-10.13c21.04,0,38.17,17.12,38.17,38.17
		c0,20.54-16.31,37.35-36.67,38.14v11.67C226.95,197.42,248.5,175.38,248.5,148.41z"/>
	
		<rect x="73.72" y="193.9" transform="matrix(0.7071 -0.7071 0.7071 0.7071 -110.9696 131.5685)" class="st0" width="59.22" height="11.67"/>
	
		<rect x="131.13" y="157.23" transform="matrix(0.7071 -0.7071 0.7071 0.7071 -74.3007 146.757)" class="st0" width="17.74" height="11.67"/>
	
		<rect x="167.79" y="208.57" transform="matrix(0.7071 -0.7071 0.7071 0.7071 -99.8624 187.7177)" class="st0" width="17.74" height="11.67"/>
	
		<rect x="114.68" y="186.58" transform="matrix(0.7071 -0.7071 0.7071 0.7071 -90.7553 165.7233)" class="st0" width="79.97" height="11.67"/>
</g>
</svg>
