<?xml version="1.0" encoding="utf-8"?>
<!-- Generator: Adobe Illustrator 24.1.0, SVG Export Plug-In . SVG Version: 6.00 Build 0)  -->
<svg version="1.1" id="圖層_1" xmlns="http://www.w3.org/2000/svg" xmlns:xlink="http://www.w3.org/1999/xlink" x="0px" y="0px"
	 viewBox="0 0 280 280" style="enable-background:new 0 0 280 280;" xml:space="preserve">
<style type="text/css">
	.st0{fill:#FFFFFF;stroke:#FFFFFF;stroke-miterlimit:10;}
	.st1{fill:#FFFFFF;stroke:#FFFFFF;stroke-width:5;stroke-miterlimit:10;}
	.st2{fill:none;stroke:#FFFFFF;stroke-width:10;stroke-linecap:round;stroke-miterlimit:10;}
</style>
<g id="tsunami_拷貝">
	<g>
		<path class="st0" d="M267.22,194.49c-1.67-0.7-3.6-0.33-4.89,0.94c-1.45,1.39-3.65,1.65-5.38,0.63l-14.16-8.95l-0.04-0.06
			l-9.96-6.31c-4.07-2.59-9.23-2.75-13.45-0.4c-4.36,2.43-7.02,7.07-6.9,12.06c-0.14,2.47-2.26,4.36-4.73,4.22
			c-0.67-0.04-1.32-0.22-1.91-0.55l-24.16-15.33c-4.07-2.59-9.23-2.75-13.45-0.4c-4.36,2.43-7.02,7.07-6.9,12.06
			c-0.14,2.47-2.26,4.36-4.73,4.22c-0.67-0.04-1.32-0.22-1.91-0.55l-12.6-7.98c0.07-0.02,0.13-0.04,0.2-0.05l-13.56-8.14
			c-3.73-1.65-8.06-1.5-11.69,0.52c-4.34,2.44-6.98,7.08-6.86,12.06c0.03,1.59-0.83,3.07-2.24,3.81c-1.39,0.8-3.1,0.8-4.48,0
			l-24.16-15.33c-4.07-2.59-9.23-2.75-13.45-0.4c-4.34,2.44-6.98,7.08-6.86,12.06c-0.14,2.47-2.26,4.36-4.73,4.22
			c-0.67-0.04-1.32-0.22-1.91-0.55l-24.39-15.56c-2.66-1.7-5.84-2.38-8.97-1.93v-16.81h22.41h82.75
			c12.07-0.03,15.17,3.38,25.38,9.82l8.29,5.88c0.75-0.46,1.51-0.92,2.25-1.4c1.88-1.18,3.67-2.46,5.43-3.78l-10.14-7.75
			c-11.84-7.72-16.98-11.81-31.16-11.73h-6.59V108.2l10.76,8.07c0.78,0.58,1.72,0.9,2.69,0.9c2,0,3.84-1.34,4.37-3.44
			c0.45-1.77-0.35-3.63-1.81-4.73c-7.78-5.84-43.54-32.65-53.67-40.25c-1.59-1.2-3.78-1.19-5.37,0.01l-53.62,40.21
			c-1.76,1.32-2.5,3.73-1.51,5.69c1.3,2.58,4.52,3.26,6.72,1.61l10.76-8.07v44.83H14.48c-2.48,0-4.48,2.01-4.48,4.48v28.2v56.98
			c0,2.48,2.01,4.48,4.48,4.48h251.03c2.48,0,4.48-2.01,4.48-4.48v-44.07C269.99,196.8,268.89,195.18,267.22,194.49z M86.21,153.02
			H68.28v-26.9h17.93V153.02z M45.86,101.47l31.38-23.53l31.38,23.53v51.55H95.17v-31.38c0-2.48-2.01-4.48-4.48-4.48h-26.9
			c-2.48,0-4.48,2.01-4.48,4.48v31.38H45.86V101.47z M261.03,238.2H18.97v-29.94v-20.17c1.31-0.63,2.86-0.53,4.08,0.27l24.16,15.33
			c4.07,2.59,9.23,2.75,13.45,0.4c4.36-2.43,7.02-7.07,6.9-12.06c-0.03-1.59,0.83-3.07,2.24-3.81c1.39-0.8,3.1-0.8,4.48,0
			l24.16,15.33c4.07,2.59,9.23,2.75,13.45,0.4c4.36-2.43,7.02-7.07,6.9-12.06c-0.03-1.59,0.83-3.07,2.24-3.81
			c1.39-0.8,3.1-0.8,4.48,0l0.63,0.4c0.43,0.41,0.93,0.73,1.48,0.94l22.06,13.99c4.07,2.59,9.23,2.75,13.45,0.4
			c4.34-2.44,6.98-7.08,6.86-12.06c-0.03-1.59,0.83-3.07,2.24-3.81c1.39-0.8,3.1-0.8,4.48,0l2.69,1.7l21.47,13.45
			c4.07,2.59,9.23,2.75,13.45,0.4c4.34-2.44,6.98-7.08,6.86-12.06c-0.03-1.59,0.83-3.07,2.24-3.81c1.39-0.8,3.1-0.8,4.48,0l24.16,16
			c2.66,1.71,5.84,2.41,8.97,1.97V238.2z"/>
		<polygon class="st0" points="158.44,167.24 176.42,180.78 169.76,186.33 152.23,173.67 		"/>
	</g>
	<g>
		<path class="st1" d="M178.31,42.91c0.26,0,26.71,0.47,51,21.6c1.1,0.86,2.7,0.66,3.56-0.45c0.8-1.02,0.69-2.49-0.25-3.38
			c-25.76-22.39-53.13-22.82-54.31-22.83c-36.69,0-50.91,15.22-56.38,27.99c-1.9,4.38,0.12,9.47,4.5,11.37
			c1.94,0.84,4.11,0.94,6.12,0.28c0.47-0.16,0.92-0.29,1.34-0.4c-0.38,2.27-0.38,4.58-0.02,6.86c0.48,3.14,2.81,5.68,5.9,6.43
			c3.02,0.78,6.21-0.37,8.04-2.9c2.97-3.92,7.28-6.61,12.1-7.56c5.83-0.09,10.54,1.66,14.01,5.24c8.04,8.27,7.32,23.64,7.31,23.84
			c-0.12,3.09-0.62,6.16-1.5,9.13c-2.17,7.46-7.29,13.7-14.18,17.28c-7.11,3.72-15.42,4.42-23.05,1.94
			c-10.07-3.31-19.12-4.97-26.92-4.97c-1.4,0-2.53,1.13-2.53,2.53s1.13,2.53,2.53,2.53c7.26,0,15.79,1.59,25.34,4.73
			c8.94,2.91,18.67,2.09,26.99-2.27c8.1-4.21,14.13-11.56,16.68-20.33c0.98-3.36,1.54-6.84,1.67-10.34
			c0.04-0.71,0.85-17.7-8.72-27.58c-4.52-4.67-10.56-6.95-17.94-6.79c-0.08-0.01-0.17-0.01-0.26,0c-6.25,1.09-11.85,4.53-15.65,9.62
			c-0.63,0.85-1.71,1.24-2.74,0.97c-1.1-0.25-1.94-1.16-2.1-2.28c-0.43-2.85-0.13-5.76,0.88-8.45c0.48-1.32-0.2-2.77-1.52-3.25
			c-0.34-0.12-0.69-0.17-1.05-0.15c-2.1,0.23-4.17,0.69-6.18,1.36c-1.88,0.62-3.9-0.39-4.52-2.27c-0.28-0.85-0.24-1.77,0.13-2.58
			C131.48,56.47,144.4,42.91,178.31,42.91z"/>
		<path class="st1" d="M242.87,74.91c-1.12,0.84-1.34,2.43-0.5,3.55l0,0c0.39,0.52,0.78,1.04,1.15,1.57
			c0.47,0.67,1.24,1.06,2.06,1.06c1.4,0,2.53-1.13,2.53-2.52c0-0.53-0.17-1.05-0.48-1.49c-0.4-0.56-0.81-1.12-1.22-1.67
			C245.57,74.29,243.98,74.07,242.87,74.91z"/>
		<path class="st1" d="M318.02,127.66c-34.28,0-53.46-22.97-61.84-36.68c-0.77-1.17-2.34-1.49-3.51-0.72
			c-1.11,0.73-1.47,2.2-0.81,3.36c4.09,6.7,11.23,16.38,21.98,24.45c12.96,9.73,27.82,14.66,44.17,14.66c1.4,0,2.53-1.13,2.53-2.53
			C320.55,128.8,319.42,127.66,318.02,127.66L318.02,127.66z"/>
	</g>
	<path class="st2" d="M13.15,136.17c0,0,12.67-8.45,25.34-0.84"/>
</g>
</svg>
