<?xml version="1.0" encoding="utf-8"?>
<!-- Generator: Adobe Illustrator 24.1.0, SVG Export Plug-In . SVG Version: 6.00 Build 0)  -->
<svg version="1.1" id="圖層_1" xmlns="http://www.w3.org/2000/svg" xmlns:xlink="http://www.w3.org/1999/xlink" x="0px" y="0px"
	 viewBox="0 0 280 280" style="enable-background:new 0 0 280 280;" xml:space="preserve">
<style type="text/css">
	.st0{fill:#FFFFFF;}
</style>
<g id="wave">
	<g transform="translate(0,-280.06665)">
		<path class="st0" d="M150.41,322.67c-16.75,0-29.93,6.05-40.5,14.89c-10.57,8.83-18.7,20.32-26.24,31.55
			c-7.54,11.22-14.52,22.19-22.29,30.1s-15.97,12.74-26.9,12.74c-5.29,0.12-5.29,8,0,8.12c13.41,0,24.02-6.33,32.69-15.16
			c8.67-8.83,15.79-20.18,23.25-31.28s15.21-21.93,24.68-29.84s20.49-13,35.32-13c23.45,0,36.62,7.58,44.4,17.26
			c2.89,3.6,5.04,7.57,6.59,11.62c-9.1-9.26-20.9-13.15-32.29-12.29c-17.2,1.3-33.6,12.69-39.83,30.17
			c-3.69,10.34-4.42,23.75-1.92,37.11c0.99,5.32,8.97,3.83,7.98-1.49c-2.26-12.08-1.45-24.39,1.59-32.9
			c5.08-14.24,18.79-23.73,32.79-24.79c8.98-0.68,18.01,1.86,25.27,8.96c-3.67-1.32-7.41-2.03-11.04-1.98
			c-1.4,0.02-2.78,0.14-4.14,0.37c-10.85,1.8-19.69,11.07-19.51,24.84c0.01,10.29,4.74,18.54,11.78,23.96
			c7.05,5.43,16.23,8.3,25.85,9.14c19.23,1.68,40.67-4.32,50.9-18.6c3.25-4.41-3.46-9.22-6.59-4.73
			c-7.56,10.55-26.72,16.72-43.62,15.24c-8.45-0.74-16.21-3.3-21.6-7.46c-5.39-4.16-8.6-9.62-8.6-17.58c0-0.02,0-0.05,0-0.06
			c-0.14-10.58,5.21-15.51,12.71-16.75c7.43-1.23,17.24,2.04,24.53,11.01c2.4,3.55,7.94,1.45,7.39-2.8v-0.01
			c-0.08-10.74-2.7-24.6-11.91-36.06C191.78,331.32,175.66,322.67,150.41,322.67L150.41,322.67z M66.91,432.15
			c-1.2,0.02-2.32,0.57-3.08,1.5c-5.54,6.62-12.98,10.72-21.23,10.72c-2.49,0-4.89-0.37-7.19-1.07c-5.31-1.84-7.8,6.33-2.36,7.76
			c3.04,0.92,6.25,1.43,9.55,1.43c9.39,0,17.84-4.06,24.35-10.32c6.51,6.26,14.96,10.32,24.35,10.32s17.84-4.06,24.35-10.32
			c6.51,6.26,14.96,10.32,24.35,10.32s17.84-4.06,24.35-10.32c6.51,6.26,14.96,10.32,24.35,10.32s17.84-4.06,24.35-10.32
			c6.51,6.26,14.96,10.32,24.35,10.32c3.3,0,6.51-0.5,9.55-1.43c5.44-1.43,2.95-9.6-2.36-7.76c-2.3,0.7-4.7,1.07-7.19,1.07
			c-8.26,0-15.7-4.11-21.23-10.72c-0.8-0.96-2-1.49-3.25-1.45c-1.15,0.03-2.24,0.57-2.98,1.45c-5.54,6.62-12.98,10.72-21.23,10.72
			c-8.26,0-15.7-4.11-21.23-10.72c-0.8-0.96-2-1.49-3.25-1.45c-1.15,0.03-2.24,0.57-2.98,1.45c-5.54,6.62-12.98,10.72-21.23,10.72
			c-8.26,0-15.7-4.11-21.23-10.72c-0.8-0.96-2-1.49-3.24-1.45c-1.16,0.03-2.24,0.56-2.99,1.45c-5.54,6.62-12.98,10.72-21.23,10.72
			c-8.09,0-15.38-3.96-20.88-10.34C69.66,432.83,68.33,432.12,66.91,432.15L66.91,432.15z M66.91,464.66
			c-1.2,0.02-2.32,0.57-3.08,1.5c-5.54,6.62-12.98,10.72-21.23,10.72c-2.49,0-4.89-0.37-7.19-1.07c-5.31-1.84-7.8,6.33-2.36,7.76
			c3.04,0.92,6.25,1.43,9.55,1.43c9.39,0,17.84-4.06,24.35-10.32C73.46,480.94,81.91,485,91.3,485s17.84-4.06,24.35-10.32
			C122.16,480.94,130.61,485,140,485s17.84-4.06,24.35-10.32c6.51,6.26,14.96,10.32,24.35,10.32s17.84-4.06,24.35-10.32
			c6.51,6.26,14.96,10.32,24.35,10.32c3.3,0,6.51-0.5,9.55-1.43c5.44-1.43,2.95-9.6-2.36-7.76c-2.3,0.7-4.7,1.07-7.19,1.07
			c-8.26,0-15.7-4.11-21.23-10.72c-0.8-0.96-2-1.49-3.25-1.45c-1.15,0.03-2.24,0.57-2.98,1.45c-5.54,6.62-12.98,10.72-21.23,10.72
			c-8.26,0-15.7-4.11-21.23-10.72c-0.8-0.96-2-1.49-3.25-1.45c-1.15,0.03-2.24,0.57-2.98,1.45c-5.54,6.62-12.98,10.72-21.23,10.72
			c-8.26,0-15.7-4.11-21.23-10.72c-0.8-0.96-2-1.49-3.24-1.45c-1.16,0.03-2.24,0.56-2.99,1.45c-5.54,6.62-12.98,10.72-21.23,10.72
			c-8.09,0-15.38-3.96-20.88-10.34C69.66,465.35,68.33,464.63,66.91,464.66L66.91,464.66z M66.91,497.13
			c-1.2,0.02-2.32,0.57-3.08,1.5c-5.54,6.62-12.98,10.72-21.23,10.72c-2.49,0-4.89-0.37-7.19-1.07c-5.31-1.84-7.8,6.33-2.36,7.76
			c3.04,0.92,6.25,1.43,9.55,1.43c9.39,0,17.84-4.06,24.35-10.32c6.51,6.26,14.96,10.32,24.35,10.32s17.84-4.06,24.35-10.32
			c6.51,6.26,14.96,10.32,24.35,10.32s17.84-4.06,24.35-10.32c6.51,6.26,14.96,10.32,24.35,10.32s17.84-4.06,24.35-10.32
			c6.51,6.26,14.96,10.32,24.35,10.32c3.3,0,6.51-0.5,9.55-1.43c5.44-1.43,2.95-9.6-2.36-7.76c-2.3,0.7-4.7,1.07-7.19,1.07
			c-8.26,0-15.7-4.11-21.23-10.72c-0.8-0.96-2-1.49-3.25-1.45c-1.15,0.03-2.24,0.57-2.98,1.45c-5.54,6.62-12.98,10.72-21.23,10.72
			c-8.26,0-15.7-4.11-21.23-10.72c-0.8-0.96-2-1.49-3.25-1.45c-1.15,0.03-2.24,0.57-2.98,1.45c-5.54,6.62-12.98,10.72-21.23,10.72
			c-8.26,0-15.7-4.11-21.23-10.72c-0.8-0.96-2-1.49-3.24-1.45c-1.16,0.03-2.24,0.56-2.99,1.45c-5.54,6.62-12.98,10.72-21.23,10.72
			c-8.09,0-15.38-3.96-20.88-10.34C69.66,497.82,68.33,497.1,66.91,497.13L66.91,497.13z"/>
	</g>
</g>
</svg>
